<svg xmlns="http://www.w3.org/2000/svg" xmlns:xlink="http://www.w3.org/1999/xlink" contentStyleType="text/css" data-diagram-type="DESCRIPTION" height="834px" preserveAspectRatio="none" style="width:691px;height:834px;background:#FFFFFF;" version="1.1" viewBox="0 0 691 834" width="691px" zoomAndPan="magnify"><?plantuml 1.2026.6?><defs/><g><g class="title" data-source-line="1"><text fill="#000000" font-family="Arial" font-size="14" font-weight="700" lengthAdjust="spacing" textLength="525.7656" x="79.3122" y="22.9951">DYS Financial Management System (DYS FMS) - Use Case Diagram</text></g><!--cluster DYS Financial Management System--><g class="cluster" data-qualified-name="DYS Financial Management System" data-source-line="17" id="ent0005"><rect fill="none" height="776" rx="2.5" ry="2.5" style="stroke:#181818;stroke-width:1;" width="475.97" x="201.42" y="44.2969"/><text fill="#000000" font-family="Arial" font-size="14" font-weight="700" lengthAdjust="spacing" textLength="278.9199" x="299.945" y="59.292">DYS Financial Management System</text></g><!--entity login--><g class="entity" data-qualified-name="DYS Financial Management System.login" data-source-line="18" id="ent0006"><ellipse cx="311.0604" cy="655.3005" fill="#FCF3CF" rx="29.8804" ry="14.5236" style="stroke:#7D6608;stroke-width:0.5;"/><text fill="#000000" font-family="Arial" font-size="14" lengthAdjust="spacing" textLength="38.0146" x="292.0531" y="659.9489">Login</text></g><!--entity logout--><g class="entity" data-qualified-name="DYS Financial Management System.logout" data-source-line="19" id="ent0007"><ellipse cx="311.0582" cy="719.3005" fill="#FCF3CF" rx="37.0682" ry="14.5236" style="stroke:#7D6608;stroke-width:0.5;"/><text fill="#000000" font-family="Arial" font-size="14" lengthAdjust="spacing" textLength="48.1797" x="286.9683" y="723.9489">Logout</text></g><!--entity restore--><g class="entity" data-qualified-name="DYS Financial Management System.restore" data-source-line="20" id="ent0008"><ellipse cx="311.0622" cy="384.3013" fill="#FCF3CF" rx="72.2222" ry="16.8444" style="stroke:#7D6608;stroke-width:0.5;"/><text fill="#000000" font-family="Arial" font-size="14" lengthAdjust="spacing" textLength="111.9248" x="255.0998" y="388.9498">Restore Session</text></g><!--entity dashboard--><g class="entity" data-qualified-name="DYS Financial Management System.dashboard" data-source-line="21" id="ent0009"><ellipse cx="311.0572" cy="588.2943" fill="#FCF3CF" rx="73.1372" ry="17.0274" style="stroke:#7D6608;stroke-width:0.5;"/><text fill="#000000" font-family="Arial" font-size="14" lengthAdjust="spacing" textLength="114.1807" x="253.9669" y="592.9428">View Dashboard</text></g><!--entity recordSales--><g class="entity" data-qualified-name="DYS Financial Management System.recordSales" data-source-line="22" id="ent0010"><ellipse cx="311.0599" cy="317.2989" fill="#FCF3CF" rx="64.0599" ry="15.212" style="stroke:#7D6608;stroke-width:0.5;"/><text fill="#000000" font-family="Arial" font-size="14" lengthAdjust="spacing" textLength="90.959" x="265.5804" y="321.9473">Record Sales</text></g><!--entity recordExpenses--><g class="entity" data-qualified-name="DYS Financial Management System.recordExpenses" data-source-line="23" id="ent0011"><ellipse cx="311.0615" cy="453.2952" fill="#FCF3CF" rx="75.6915" ry="17.5383" style="stroke:#7D6608;stroke-width:0.5;"/><text fill="#000000" font-family="Arial" font-size="14" lengthAdjust="spacing" textLength="120.4014" x="250.8608" y="457.9436">Record Expenses</text></g><!--entity calculatePayroll--><g class="entity" data-qualified-name="DYS Financial Management System.calculatePayroll" data-source-line="24" id="ent0012"><ellipse cx="311.0592" cy="173.2947" fill="#FCF3CF" rx="74.3892" ry="17.2778" style="stroke:#7D6608;stroke-width:0.5;"/><text fill="#000000" font-family="Arial" font-size="14" lengthAdjust="spacing" textLength="117.2432" x="252.4376" y="177.9431">Calculate Payroll</text></g><!--entity viewReports--><g class="entity" data-qualified-name="DYS Financial Management System.viewReports" data-source-line="25" id="ent0013"><ellipse cx="311.0556" cy="521.3" fill="#FCF3CF" rx="64.5656" ry="15.3131" style="stroke:#7D6608;stroke-width:0.5;"/><text fill="#000000" font-family="Arial" font-size="14" lengthAdjust="spacing" textLength="92.3125" x="264.8994" y="525.9484">View Reports</text></g><!--entity viewSummary--><g class="entity" data-qualified-name="DYS Financial Management System.viewSummary" data-source-line="26" id="ent0014"><ellipse cx="563.0476" cy="671.2964" fill="#FCF3CF" rx="98.3476" ry="22.0695" style="stroke:#7D6608;stroke-width:0.5;"/><text fill="#000000" font-family="Arial" font-size="14" lengthAdjust="spacing" textLength="172.4092" x="476.843" y="675.9448">View Financial Summary</text></g><!--entity viewSalesReports--><g class="entity" data-qualified-name="DYS Financial Management System.viewSalesReports" data-source-line="27" id="ent0015"><ellipse cx="563.0459" cy="595.2921" fill="#FCF3CF" rx="81.4259" ry="18.6852" style="stroke:#7D6608;stroke-width:0.5;"/><text fill="#000000" font-family="Arial" font-size="14" lengthAdjust="spacing" textLength="134.0254" x="496.0332" y="599.9405">View Sales Reports</text></g><!--entity viewExpenseReports--><g class="entity" data-qualified-name="DYS Financial Management System.viewExpenseReports" data-source-line="28" id="ent0016"><ellipse cx="563.0466" cy="521.2922" fill="#FCF3CF" rx="91.0766" ry="20.6153" style="stroke:#7D6608;stroke-width:0.5;"/><text fill="#000000" font-family="Arial" font-size="14" lengthAdjust="spacing" textLength="156.1738" x="484.9597" y="525.9406">View Expense Reports</text></g><!--entity viewPayrollReports--><g class="entity" data-qualified-name="DYS Financial Management System.viewPayrollReports" data-source-line="29" id="ent0017"><ellipse cx="563.052" cy="446.2973" fill="#FCF3CF" rx="85.802" ry="19.5604" style="stroke:#7D6608;stroke-width:0.5;"/><text fill="#000000" font-family="Arial" font-size="14" lengthAdjust="spacing" textLength="144.1699" x="490.967" y="450.9457">View Payroll Reports</text></g><!--entity viewAnalytics--><g class="entity" data-qualified-name="DYS Financial Management System.viewAnalytics" data-source-line="30" id="ent0018"><ellipse cx="563.052" cy="375.2973" fill="#FCF3CF" rx="68.102" ry="16.0204" style="stroke:#7D6608;stroke-width:0.5;"/><text fill="#000000" font-family="Arial" font-size="14" lengthAdjust="spacing" textLength="101.5547" x="512.2746" y="379.9457">View Analytics</text></g><!--entity viewOwnPayroll--><g class="entity" data-qualified-name="DYS Financial Management System.viewOwnPayroll" data-source-line="31" id="ent0019"><ellipse cx="311.0645" cy="786.2998" fill="#FCF3CF" rx="76.0145" ry="17.6029" style="stroke:#7D6608;stroke-width:0.5;"/><text fill="#000000" font-family="Arial" font-size="14" lengthAdjust="spacing" textLength="121.1807" x="250.4741" y="790.9482">View Own Payroll</text></g><!--entity switchSector--><g class="entity" data-qualified-name="DYS Financial Management System.switchSector" data-source-line="32" id="ent0020"><ellipse cx="311.0579" cy="100.2945" fill="#FCF3CF" rx="93.6379" ry="21.1276" style="stroke:#7D6608;stroke-width:0.5;"/><text fill="#000000" font-family="Arial" font-size="14" lengthAdjust="spacing" textLength="161.9297" x="230.0931" y="104.9429">Switch Business Sector</text></g><!--entity manageUsers--><g class="entity" data-qualified-name="DYS Financial Management System.manageUsers" data-source-line="33" id="ent0021"><ellipse cx="311.0643" cy="246.2957" fill="#FCF3CF" rx="92.9943" ry="20.9989" style="stroke:#7D6608;stroke-width:0.5;"/><text fill="#000000" font-family="Arial" font-size="14" lengthAdjust="spacing" textLength="160.4873" x="230.8206" y="250.9442">Manage User Accounts</text></g><!--entity owner--><g class="entity" data-qualified-name="owner" data-source-line="12" id="ent0001"><ellipse cx="81.7087" cy="362.1469" fill="#F1F1F1" rx="16" ry="16" style="stroke:#181818;stroke-width:0.5;"/><path d="M81.7087,382.1469 C85.7087,382.1469 88.7087,382.1469 92.7087,378.1469 C100.7087,378.1469 108.7087,386.1469 108.7087,394.1469 L108.7087,398.1469 C108.7087,402.1469 104.7087,406.1469 100.7087,406.1469 L62.7087,406.1469 C58.7087,406.1469 54.7087,402.1469 54.7087,398.1469 L54.7087,394.1469 C54.7087,386.1469 62.7087,378.1469 70.7087,378.1469 C74.7087,382.1469 77.7087,382.1469 81.7087,382.1469" fill="#F1F1F1" style="stroke:#181818;stroke-width:0.5;"/><text fill="#000000" font-family="Arial" font-size="14" lengthAdjust="spacing" textLength="111.8975" x="25.76" y="419.642">Business Owner</text></g><!--entity manager--><g class="entity" data-qualified-name="manager" data-source-line="13" id="ent0002"><ellipse cx="81.7114" cy="487.1469" fill="#F1F1F1" rx="16" ry="16" style="stroke:#181818;stroke-width:0.5;"/><path d="M81.7114,507.1469 C85.7114,507.1469 88.7114,507.1469 92.7114,503.1469 C100.7114,503.1469 108.7114,511.1469 108.7114,519.1469 L108.7114,523.1469 C108.7114,527.1469 104.7114,531.1469 100.7114,531.1469 L62.7114,531.1469 C58.7114,531.1469 54.7114,527.1469 54.7114,523.1469 L54.7114,519.1469 C54.7114,511.1469 62.7114,503.1469 70.7114,503.1469 C74.7114,507.1469 77.7114,507.1469 81.7114,507.1469" fill="#F1F1F1" style="stroke:#181818;stroke-width:0.5;"/><text fill="#000000" font-family="Arial" font-size="14" lengthAdjust="spacing" textLength="105.9229" x="28.75" y="544.642">Event Manager</text></g><!--entity bookkeeper--><g class="entity" data-qualified-name="bookkeeper" data-source-line="14" id="ent0003"><ellipse cx="81.7163" cy="711.1469" fill="#F1F1F1" rx="16" ry="16" style="stroke:#181818;stroke-width:0.5;"/><path d="M81.7163,731.1469 C85.7163,731.1469 88.7163,731.1469 92.7163,727.1469 C100.7163,727.1469 108.7163,735.1469 108.7163,743.1469 L108.7163,747.1469 C108.7163,751.1469 104.7163,755.1469 100.7163,755.1469 L62.7163,755.1469 C58.7163,755.1469 54.7163,751.1469 54.7163,747.1469 L54.7163,743.1469 C54.7163,735.1469 62.7163,727.1469 70.7163,727.1469 C74.7163,731.1469 77.7163,731.1469 81.7163,731.1469" fill="#F1F1F1" style="stroke:#181818;stroke-width:0.5;"/><text fill="#000000" font-family="Arial" font-size="14" lengthAdjust="spacing" textLength="83.4326" x="40" y="768.642">Bookkeeper</text></g><!--entity staff--><g class="entity" data-qualified-name="staff" data-source-line="15" id="ent0004"><ellipse cx="81.7114" cy="599.1469" fill="#F1F1F1" rx="16" ry="16" style="stroke:#181818;stroke-width:0.5;"/><path d="M81.7114,619.1469 C85.7114,619.1469 88.7114,619.1469 92.7114,615.1469 C100.7114,615.1469 108.7114,623.1469 108.7114,631.1469 L108.7114,635.1469 C108.7114,639.1469 104.7114,643.1469 100.7114,643.1469 L62.7114,643.1469 C58.7114,643.1469 54.7114,639.1469 54.7114,635.1469 L54.7114,631.1469 C54.7114,623.1469 62.7114,615.1469 70.7114,615.1469 C74.7114,619.1469 77.7114,619.1469 81.7114,619.1469" fill="#F1F1F1" style="stroke:#181818;stroke-width:0.5;"/><text fill="#000000" font-family="Arial" font-size="14" lengthAdjust="spacing" textLength="151.4229" x="6" y="656.642">Employee/Event Staff</text></g><!--link owner to login--><g class="link" data-entity-1="ent0001" data-entity-2="ent0006" data-link-type="association" data-source-line="36" id="lnk22"><path d="M137.89,414.2269 C166.53,414.2269 195.39,414.2269 195.39,414.2269 C195.39,414.2269 195.39,643.9669 195.39,643.9669 C195.39,643.9669 258.11,643.9669 291.18,643.9669" fill="none" id="owner-login" style="stroke:#181818;stroke-width:1;"/></g><!--link owner to logout--><g class="link" data-entity-1="ent0001" data-entity-2="ent0007" data-link-type="association" data-source-line="37" id="lnk23"><path d="M137.97,418.5869 C159.68,418.5869 179.39,418.5869 179.39,418.5869 C179.39,418.5869 179.39,712.0369 179.39,712.0369 C179.39,712.0369 239.18,712.0369 278.18,712.0369" fill="none" id="owner-logout" style="stroke:#181818;stroke-width:1;"/></g><!--link owner to restore--><g class="link" data-entity-1="ent0001" data-entity-2="ent0008" data-link-type="association" data-source-line="38" id="lnk24"><path d="M138.11,380.9269 C168.88,380.9269 207.28,380.9269 240.07,380.9269" fill="none" id="owner-restore" style="stroke:#181818;stroke-width:1;"/></g><!--link owner to restore--><g class="link" data-entity-1="ent0001" data-entity-2="ent0008" data-link-type="association" data-source-line="60" id="lnk44"><path d="M138.11,374.1869 C172.73,374.1869 216.99,374.1869 252.08,374.1869" fill="none" id="owner-restore-1" style="stroke:#181818;stroke-width:1;"/></g><!--link owner to dashboard--><g class="link" data-entity-1="ent0001" data-entity-2="ent0009" data-link-type="association" data-source-line="39" id="lnk25"><path d="M138.05,409.8669 C169.09,409.8669 201.39,409.8669 201.39,409.8669 C201.39,409.8669 201.39,576.9569 201.39,576.9569 C201.39,576.9569 227.96,576.9569 254.94,576.9569" fill="none" id="owner-dashboard" style="stroke:#181818;stroke-width:1;"/></g><!--link owner to recordSales--><g class="link" data-entity-1="ent0001" data-entity-2="ent0010" data-link-type="association" data-source-line="40" id="lnk26"><path d="M137.9,354.7369 C205.9,354.7369 311.39,354.7369 311.39,354.7369 C311.39,354.7369 311.39,343.2169 311.39,332.9569" fill="none" id="owner-recordSales" style="stroke:#181818;stroke-width:1;"/></g><!--link owner to recordExpenses--><g class="link" data-entity-1="ent0001" data-entity-2="ent0011" data-link-type="association" data-source-line="41" id="lnk27"><path d="M81.39,423.1769 C81.39,436.1569 81.39,447.3869 81.39,447.3869 C81.39,447.3869 171.95,447.3869 239.34,447.3869" fill="none" id="owner-recordExpenses" style="stroke:#181818;stroke-width:1;"/></g><!--link owner to calculatePayroll--><g class="link" data-entity-1="ent0001" data-entity-2="ent0012" data-link-type="association" data-source-line="42" id="lnk28"><path d="M100.39,345.5969 C100.39,284.6869 100.39,173.2969 100.39,173.2969 C100.39,173.2969 175.64,173.2969 236.19,173.2969" fill="none" id="owner-calculatePayroll" style="stroke:#181818;stroke-width:1;"/></g><!--link owner to viewReports--><g class="link" data-entity-1="ent0001" data-entity-2="ent0013" data-link-type="association" data-source-line="43" id="lnk29"><path d="M137.85,405.5069 C170.95,405.5069 206.39,405.5069 206.39,405.5069 C206.39,405.5069 206.39,509.8169 206.39,509.8169 C206.39,509.8169 237.92,509.8169 266.37,509.8169" fill="none" id="owner-viewReports" style="stroke:#181818;stroke-width:1;"/></g><!--link owner to viewAnalytics--><g class="link" data-entity-1="ent0001" data-entity-2="ent0018" data-link-type="association" data-source-line="44" id="lnk30"><path d="M137.87,361.9969 C236.07,361.9969 436.71,361.9969 522.58,361.9969" fill="none" id="owner-viewAnalytics" style="stroke:#181818;stroke-width:1;"/></g><!--link owner to switchSector--><g class="link" data-entity-1="ent0001" data-entity-2="ent0020" data-link-type="association" data-source-line="45" id="lnk31"><path d="M63.39,345.4069 C63.39,267.6269 63.39,100.2969 63.39,100.2969 C63.39,100.2969 147.01,100.2969 217.08,100.2969" fill="none" id="owner-switchSector" style="stroke:#181818;stroke-width:1;"/></g><!--link owner to manageUsers--><g class="link" data-entity-1="ent0001" data-entity-2="ent0021" data-link-type="association" data-source-line="46" id="lnk32"><path d="M138.06,350.1869 C178.69,350.1869 226.39,350.1869 226.39,350.1869 C226.39,350.1869 226.39,280.2769 226.39,255.1569" fill="none" id="owner-manageUsers" style="stroke:#181818;stroke-width:1;"/></g><!--link manager to login--><g class="link" data-entity-1="ent0002" data-entity-2="ent0006" data-link-type="association" data-source-line="48" id="lnk33"><path d="M135.1,521.2969 C162.58,521.2969 190.39,521.2969 190.39,521.2969 C190.39,521.2969 190.39,647.1669 190.39,647.1669 C190.39,647.1669 250.38,647.1669 285.77,647.1669" fill="none" id="manager-login" style="stroke:#181818;stroke-width:1;"/></g><!--link manager to logout--><g class="link" data-entity-1="ent0002" data-entity-2="ent0007" data-link-type="association" data-source-line="49" id="lnk34"><path d="M135.04,525.1269 C155.21,525.1269 173.39,525.1269 173.39,525.1269 C173.39,525.1269 173.39,719.2969 173.39,719.2969 C173.39,719.2969 233.04,719.2969 273.81,719.2969" fill="none" id="manager-logout" style="stroke:#181818;stroke-width:1;"/></g><!--link manager to restore--><g class="link" data-entity-1="ent0002" data-entity-2="ent0008" data-link-type="association" data-source-line="50" id="lnk35"><path d="M134.86,482.7769 C171.05,482.7769 212.39,482.7769 212.39,482.7769 C212.39,482.7769 212.39,394.4069 212.39,394.4069 C212.39,394.4069 231.11,394.4069 252.24,394.4069" fill="none" id="manager-restore" style="stroke:#181818;stroke-width:1;"/></g><!--link manager to dashboard--><g class="link" data-entity-1="ent0002" data-entity-2="ent0009" data-link-type="association" data-source-line="51" id="lnk36"><path d="M134.99,517.4669 C181.09,517.4669 240.39,517.4669 240.39,517.4669 C240.39,517.4669 240.39,567.8969 240.39,583.6469" fill="none" id="manager-dashboard" style="stroke:#181818;stroke-width:1;"/></g><!--link manager to recordSales--><g class="link" data-entity-1="ent0002" data-entity-2="ent0010" data-link-type="association" data-source-line="52" id="lnk37"><path d="M135.16,476.8069 C160.11,476.8069 184.39,476.8069 184.39,476.8069 C184.39,476.8069 184.39,317.2969 184.39,317.2969 C184.39,317.2969 215.32,317.2969 246.61,317.2969" fill="none" id="manager-recordSales" style="stroke:#181818;stroke-width:1;"/></g><!--link manager to recordExpenses--><g class="link" data-entity-1="ent0002" data-entity-2="ent0011" data-link-type="association" data-source-line="53" id="lnk38"><path d="M135.1,488.7469 C182.19,488.7469 243.39,488.7469 243.39,488.7469 C243.39,488.7469 243.39,471.9869 243.39,461.5169" fill="none" id="manager-recordExpenses" style="stroke:#181818;stroke-width:1;"/></g><!--link manager to viewReports--><g class="link" data-entity-1="ent0002" data-entity-2="ent0013" data-link-type="association" data-source-line="54" id="lnk39"><path d="M134.91,513.6369 C170.63,513.6369 217.67,513.6369 254.15,513.6369" fill="none" id="manager-viewReports" style="stroke:#181818;stroke-width:1;"/></g><!--link manager to viewAnalytics--><g class="link" data-entity-1="ent0002" data-entity-2="ent0018" data-link-type="association" data-source-line="55" id="lnk40"><path d="M134.85,494.7169 C229.94,494.7169 419.39,494.7169 419.39,494.7169 C419.39,494.7169 419.39,373.4169 419.39,373.4169 C419.39,373.4169 457.88,373.4169 495.01,373.4169" fill="none" id="manager-viewAnalytics" style="stroke:#181818;stroke-width:1;"/></g><!--link manager to viewOwnPayroll--><g class="link" data-entity-1="ent0002" data-entity-2="ent0019" data-link-type="association" data-source-line="56" id="lnk41"><path d="M135.08,532.7769 C150.08,532.7769 162.39,532.7769 162.39,532.7769 C162.39,532.7769 162.39,787.9269 162.39,787.9269 C162.39,787.9269 198.41,787.9269 234.99,787.9269" fill="none" id="manager-viewOwnPayroll" style="stroke:#181818;stroke-width:1;"/></g><!--link bookkeeper to login--><g class="link" data-entity-1="ent0003" data-entity-2="ent0006" data-link-type="association" data-source-line="58" id="lnk42"><path d="M123.84,700.7269 C190.15,700.7269 311.39,700.7269 311.39,700.7269 C311.39,700.7269 311.39,683.4169 311.39,670.1669" fill="none" id="bookkeeper-login" style="stroke:#181818;stroke-width:1;"/></g><!--link bookkeeper to logout--><g class="link" data-entity-1="ent0003" data-entity-2="ent0007" data-link-type="association" data-source-line="59" id="lnk43"><path d="M123.78,726.5569 C168.39,726.5569 237.92,726.5569 278.52,726.5569" fill="none" id="bookkeeper-logout" style="stroke:#181818;stroke-width:1;"/></g><!--link bookkeeper to dashboard--><g class="link" data-entity-1="ent0003" data-entity-2="ent0009" data-link-type="association" data-source-line="61" id="lnk45"><path d="M123.52,698.6969 C172.6,698.6969 247.39,698.6969 247.39,698.6969 C247.39,698.6969 247.39,622.9869 247.39,596.9569" fill="none" id="bookkeeper-dashboard" style="stroke:#181818;stroke-width:1;"/></g><!--link bookkeeper to viewReports--><g class="link" data-entity-1="ent0003" data-entity-2="ent0013" data-link-type="association" data-source-line="62" id="lnk46"><path d="M123.78,696.6769 C145.87,696.6769 168.39,696.6769 168.39,696.6769 C168.39,696.6769 168.39,528.9569 168.39,528.9569 C168.39,528.9569 214.48,528.9569 254.27,528.9569" fill="none" id="bookkeeper-viewReports" style="stroke:#181818;stroke-width:1;"/></g><!--link bookkeeper to viewAnalytics--><g class="link" data-entity-1="ent0003" data-entity-2="ent0018" data-link-type="association" data-source-line="63" id="lnk47"><path d="M123.89,702.7469 C220.47,702.7469 449.39,702.7469 449.39,702.7469 C449.39,702.7469 449.39,385.3469 449.39,385.3469 C449.39,385.3469 479.61,385.3469 508.88,385.3469" fill="none" id="bookkeeper-viewAnalytics" style="stroke:#181818;stroke-width:1;"/></g><!--link bookkeeper to viewOwnPayroll--><g class="link" data-entity-1="ent0003" data-entity-2="ent0019" data-link-type="association" data-source-line="64" id="lnk48"><path d="M123.55,751.2569 C175.23,751.2569 256.39,751.2569 256.39,751.2569 C256.39,751.2569 256.39,763.6069 256.39,773.6469" fill="none" id="bookkeeper-viewOwnPayroll" style="stroke:#181818;stroke-width:1;"/></g><!--link staff to login--><g class="link" data-entity-1="ent0004" data-entity-2="ent0006" data-link-type="association" data-source-line="66" id="lnk49"><path d="M157.76,650.3569 C200.53,650.3569 251.42,650.3569 282.47,650.3569" fill="none" id="staff-login" style="stroke:#181818;stroke-width:1;"/></g><!--link staff to logout--><g class="link" data-entity-1="ent0004" data-entity-2="ent0007" data-link-type="association" data-source-line="67" id="lnk50"><path d="M157.65,653.5569 C212.65,653.5569 277.39,653.5569 277.39,653.5569 C277.39,653.5569 277.39,696.1269 277.39,712.7569" fill="none" id="staff-logout" style="stroke:#181818;stroke-width:1;"/></g><!--link staff to restore--><g class="link" data-entity-1="ent0004" data-entity-2="ent0008" data-link-type="association" data-source-line="68" id="lnk51"><path d="M147.39,582.1969 C147.39,515.6869 147.39,387.6669 147.39,387.6669 C147.39,387.6669 195.65,387.6669 239.75,387.6669" fill="none" id="staff-restore" style="stroke:#181818;stroke-width:1;"/></g><!--link staff to dashboard--><g class="link" data-entity-1="ent0004" data-entity-2="ent0009" data-link-type="association" data-source-line="69" id="lnk52"><path d="M157.76,593.9869 C184.88,593.9869 215.27,593.9869 241.79,593.9869" fill="none" id="staff-dashboard" style="stroke:#181818;stroke-width:1;"/></g><!--link staff to recordExpenses--><g class="link" data-entity-1="ent0004" data-entity-2="ent0011" data-link-type="association" data-source-line="70" id="lnk53"><path d="M152.39,582.4269 C152.39,534.4169 152.39,459.0169 152.39,459.0169 C152.39,459.0169 197.17,459.0169 239.16,459.0169" fill="none" id="staff-recordExpenses" style="stroke:#181818;stroke-width:1;"/></g><!--link staff to viewAnalytics--><g class="link" data-entity-1="ent0004" data-entity-2="ent0018" data-link-type="association" data-source-line="71" id="lnk54"><path d="M142.39,582.3269 C142.39,510.5569 142.39,364.7269 142.39,364.7269 C142.39,364.7269 397.86,364.7269 510.62,364.7269" fill="none" id="staff-viewAnalytics" style="stroke:#181818;stroke-width:1;"/></g><!--link staff to viewOwnPayroll--><g class="link" data-entity-1="ent0004" data-entity-2="ent0019" data-link-type="association" data-source-line="72" id="lnk55"><path d="M157.75,656.7469 C208.28,656.7469 265.39,656.7469 265.39,656.7469 C265.39,656.7469 265.39,738.2069 265.39,771.9369" fill="none" id="staff-viewOwnPayroll" style="stroke:#181818;stroke-width:1;"/></g><!--link viewReports to viewSummary--><g class="link" data-entity-1="ent0013" data-entity-2="ent0014" data-link-type="dependency" data-source-line="74" id="lnk56"><path d="M360.61,531.5069 C378.96,531.5069 395.39,531.5069 395.39,531.5069 C395.39,531.5069 395.39,659.5269 395.39,659.5269 C395.39,659.5269 431.98,659.5269 473.73,659.5269" fill="none" id="viewReports-to-viewSummary" style="stroke:#181818;stroke-width:1;stroke-dasharray:7,7;"/><polygon fill="#181818" points="478.73,659.5269,469.73,655.5269,473.73,659.5269,469.73,663.5269,478.73,659.5269" style="stroke:#181818;stroke-width:1;stroke-linejoin:miter;stroke-miterlimit:10;"/><text fill="#000000" font-family="Arial" font-size="13" lengthAdjust="spacing" textLength="63.0068" x="331.39" y="632.8538">&#171;include&#187;</text></g><!--link viewReports to viewSalesReports--><g class="link" data-entity-1="ent0013" data-entity-2="ent0015" data-link-type="dependency" data-source-line="75" id="lnk57"><path d="M372.28,526.3969 C416.83,526.3969 469.39,526.3969 469.39,526.3969 C469.39,526.3969 469.39,590.9669 469.39,590.9669 C469.39,590.9669 470.07,590.9669 478.62,590.9669" fill="none" id="viewReports-to-viewSalesReports" style="stroke:#181818;stroke-width:1;stroke-dasharray:7,7;"/><polygon fill="#181818" points="483.62,590.9669,474.62,586.9669,478.62,590.9669,474.62,594.9669,483.62,590.9669" style="stroke:#181818;stroke-width:1;stroke-linejoin:miter;stroke-miterlimit:10;"/><text fill="#000000" font-family="Arial" font-size="13" lengthAdjust="spacing" textLength="63.0068" x="396.23" y="539.4638">&#171;include&#187;</text></g><!--link viewReports to viewExpenseReports--><g class="link" data-entity-1="ent0013" data-entity-2="ent0016" data-link-type="dependency" data-source-line="76" id="lnk58"><path d="M375.95,521.2969 C405.12,521.2969 435.05,521.2969 466.78,521.2969" fill="none" id="viewReports-to-viewExpenseReports" style="stroke:#181818;stroke-width:1;stroke-dasharray:7,7;"/><polygon fill="#181818" points="471.78,521.2969,462.78,517.2969,466.78,521.2969,462.78,525.2969,471.78,521.2969" style="stroke:#181818;stroke-width:1;stroke-linejoin:miter;stroke-miterlimit:10;"/><text fill="#000000" font-family="Arial" font-size="13" lengthAdjust="spacing" textLength="63.0068" x="359.87" y="517.3638">&#171;include&#187;</text></g><!--link viewReports to viewPayrollReports--><g class="link" data-entity-1="ent0013" data-entity-2="ent0017" data-link-type="dependency" data-source-line="77" id="lnk59"><path d="M372.4,516.1969 C416.2,516.1969 467.39,516.1969 467.39,516.1969 C467.39,516.1969 467.39,450.8069 467.39,450.8069 C467.39,450.8069 466.97,450.8069 474.12,450.8069" fill="none" id="viewReports-to-viewPayrollReports" style="stroke:#181818;stroke-width:1;stroke-dasharray:7,7;"/><polygon fill="#181818" points="479.12,450.8069,470.12,446.8069,474.12,450.8069,470.12,454.8069,479.12,450.8069" style="stroke:#181818;stroke-width:1;stroke-linejoin:miter;stroke-miterlimit:10;"/><text fill="#000000" font-family="Arial" font-size="13" lengthAdjust="spacing" textLength="63.0068" x="394.45" y="512.2638">&#171;include&#187;</text></g><!--link viewReports to viewAnalytics--><g class="link" data-entity-1="ent0013" data-entity-2="ent0018" data-link-type="dependency" data-source-line="78" id="lnk60"><path d="M360.51,511.0869 C394.83,511.0869 434.39,511.0869 434.39,511.0869 C434.39,511.0869 434.39,379.3869 434.39,379.3869 C434.39,379.3869 460.31,379.3869 491.84,379.3869" fill="none" id="viewReports-to-viewAnalytics" style="stroke:#181818;stroke-width:1;stroke-dasharray:7,7;"/><polygon fill="#181818" points="496.84,379.3869,487.84,375.3869,491.84,379.3869,487.84,383.3869,496.84,379.3869" style="stroke:#181818;stroke-width:1;stroke-linejoin:miter;stroke-miterlimit:10;"/><text fill="#000000" font-family="Arial" font-size="13" lengthAdjust="spacing" textLength="61.1851" x="372.39" y="447.0238">&#171;extend&#187;</text></g><?plantuml-src ZLHDRnCn4BtlhnY52nnQa90AGbMaDcbE551N875qlPED5QyTsTwcAyH_n_Pw_P5DHI-HvxqtatcpOnjcECBwTmqR9eYWZ72u9uAqsA4mK0_QO0TllU2-VWSNy5CZh8ZzMJFIAj9L7BS6Z0J5sfs1XYcaXabHwJqJ1s8Le7UaaKScMjWIhZ5Z6joIdfkD5EORwH1kb6qWumarKjLci3sI8shPvScS2JJ30K4givCPqMkahiC_5S0jeVjMoLuqAycbWZURrURZQkCOgHfK0VsqlhhwyBdwMrN-Bs5nssjRNcluVXIe5a0qI7UQ-BidDvznL2FTZUTOGChz7l4GsCSOnWhTWSi1yVrOgZPak_LIxKvLvUP8H6kjB_xpVHRUwUHwyLMsJFXAt9rEADcRYRF7d7n0RHj3gArj-m6zIerOBll5y0XhedUFagZ6gvefAijHEs6e2KSTQZd0nsTqTyy75BgGJb2kNX5EUquCmWyoACcvrzC93U2itmSys2qPYpzP8CGpNPfotNSTKKFC2F4im_kPrVVeItyIVCsI0lvIMl0sImluIsatWl31C9eI8ZBJscKlvkhK5ZiprVh83Dr1l2OrkgqUzzTJ8v2dZ7lh7X05DvJQEnbCZ3V7uThTG7_FuE8Yh6yUkesDyRIR4KXhc6dIpfs0SRiYFjkYoEGhKu1fb14kx4SqzrY5fo9vB07dCaCcdncKd1Qwv7K6HxSPaxiwWPEl4oBRXYgzQSd933lxoKfLSbFYUNzp9hKuv_8k_NEQ6in3rrkCfzuYaDhADCKi8rxsKy1vAvaXkBnSvkyAV87hQoOexnjSBiyhipVb5VBoDNb5GlcEl28XElPQV3OeckNo7m00?></g></svg>