<svg xmlns="http://www.w3.org/2000/svg" xmlns:xlink="http://www.w3.org/1999/xlink" version="1.1" data-diagram-type="ACTIVITY" style="width:1992px;height:1126px;background:#FFFFFF;" width="1992px" height="1126px" viewBox="0 0 1992 1126" zoomAndPan="magnify" preserveAspectRatio="none" contentStyleType="text/css"><?plantuml 1.2026.7?><defs/><g font-family="sans-serif" lengthAdjust="spacing"><g class="title" data-source-line="20"><text x="760.145" y="32.995" fill="#000" font-size="14" textLength="470.518" font-weight="700">DYS Event Management — Current Business Process (As-Is)</text></g><rect x="20" y="55.042" width="1945.808" height="20.953" fill="none" style="stroke:none;"/><path d="M212.042,290.737 L212.042,306.87 L192.042,310.87 L212.042,314.87 L212.042,331.003 A0,0 0 0 0 212.042,331.003 L472.603,331.003 A0,0 0 0 0 472.603,331.003 L472.603,300.737 L462.603,290.737 L212.042,290.737 A0,0 0 0 0 212.042,290.737" style="stroke:#C2C27A;stroke-width:0.5;" fill="#FFFFE0"/><path d="M462.603,290.737 L462.603,300.737 L472.603,300.737 L462.603,290.737" style="stroke:#C2C27A;stroke-width:0.5;" fill="#FFFFE0"/><text x="218.042" y="307.804" fill="#000" font-size="13" textLength="239.561">Performed by Employees/Event Staff</text><text x="230.81" y="322.937" fill="#000" font-size="13" textLength="214.024">or Manager/Head when assigned</text><rect x="34.903" y="286.901" width="157.139" height="47.938" fill="#FEFEFE" style="stroke:#2B2B2B;stroke-width:0.5;" rx="12.5" ry="12.5"/><text x="46.189" y="308.04" fill="#000" font-size="12" textLength="134.566">Purchase supplies and</text><text x="44.903" y="322.009" fill="#000" font-size="12" textLength="137.139">record expense details</text><rect x="26" y="354.839" width="174.945" height="47.938" fill="#FEFEFE" style="stroke:#2B2B2B;stroke-width:0.5;" rx="12.5" ry="12.5"/><text x="36" y="375.978" fill="#000" font-size="12" textLength="154.945">Send expense details and</text><text x="47.206" y="389.946" fill="#000" font-size="12" textLength="132.533">receipt via Messenger</text><line x1="20" y1="55.042" x2="20" y2="1105.034" style="stroke:#000;stroke-width:1.5;"/><path d="M720.923,804.987 L720.923,821.12 L700.923,825.12 L720.923,829.12 L720.923,845.253 A0,0 0 0 0 720.923,845.253 L891.753,845.253 A0,0 0 0 0 891.753,845.253 L891.753,814.987 L881.753,804.987 L720.923,804.987 A0,0 0 0 0 720.923,804.987" style="stroke:#C2C27A;stroke-width:0.5;" fill="#FFFFE0"/><path d="M881.753,804.987 L881.753,814.987 L891.753,814.987 L881.753,804.987" style="stroke:#C2C27A;stroke-width:0.5;" fill="#FFFFE0"/><text x="726.923" y="822.054" fill="#000" font-size="13" textLength="149.83">Separate responsibility</text><text x="734.194" y="837.187" fill="#000" font-size="13" textLength="135.288">(not per-transaction)</text><rect x="483.603" y="808.136" width="217.32" height="33.969" fill="#FEFEFE" style="stroke:#2B2B2B;stroke-width:0.5;" rx="12.5" ry="12.5"/><text x="493.603" y="829.274" fill="#000" font-size="12" textLength="197.32">Supervise employees/event staff</text><rect x="495.582" y="865.253" width="193.361" height="47.938" fill="#FEFEFE" style="stroke:#2B2B2B;stroke-width:0.5;" rx="12.5" ry="12.5"/><text x="519.817" y="886.392" fill="#000" font-size="12" textLength="144.891">Review financial reports</text><text x="505.582" y="900.36" fill="#000" font-size="12" textLength="173.361">within assigned sector range</text><line x1="477.603" y1="55.042" x2="477.603" y2="1105.034" style="stroke:#000;stroke-width:1.5;"/><ellipse cx="1123.009" cy="90.995" rx="10" ry="10" fill="#222" style="stroke:#222;stroke-width:1;"/><path d="M1236.839,124.831 L1236.839,140.964 L1216.839,144.964 L1236.839,148.964 L1236.839,165.097 A0,0 0 0 0 1236.839,165.097 L1489.941,165.097 A0,0 0 0 0 1489.941,165.097 L1489.941,134.831 L1479.941,124.831 L1236.839,124.831 A0,0 0 0 0 1236.839,124.831" style="stroke:#C2C27A;stroke-width:0.5;" fill="#FFFFE0"/><path d="M1479.941,124.831 L1479.941,134.831 L1489.941,134.831 L1479.941,124.831" style="stroke:#C2C27A;stroke-width:0.5;" fill="#FFFFE0"/><text x="1264.348" y="141.898" fill="#000" font-size="13" textLength="189.084">Sectors: DYS Events, B&amp;DYS,</text><text x="1242.839" y="157.031" fill="#000" font-size="13" textLength="232.102">Flavors by DYS, SnapDYS Memories</text><rect x="1029.179" y="120.995" width="187.66" height="47.938" fill="#FEFEFE" style="stroke:#2B2B2B;stroke-width:0.5;" rx="12.5" ry="12.5"/><text x="1039.179" y="142.134" fill="#000" font-size="12" textLength="167.66">Business transaction occurs</text><text x="1055.073" y="156.103" fill="#000" font-size="12" textLength="135.873">across business sector</text><rect x="1030.07" y="188.933" width="185.879" height="33.969" fill="#FEFEFE" style="stroke:#2B2B2B;stroke-width:0.5;" rx="12.5" ry="12.5"/><text x="1040.07" y="210.071" fill="#000" font-size="12" textLength="165.879">Determine transaction type</text><polygon points="1073.783,242.901,1172.235,242.901,1184.235,254.901,1172.235,266.901,1073.783,266.901,1061.783,254.901,1073.783,242.901" fill="#FFF" style="stroke:#2B2B2B;stroke-width:0.5;stroke-linejoin:miter;stroke-miterlimit:10;"/><text x="1073.783" y="258.709" fill="#000" font-size="11" textLength="98.452">Transaction type?</text><text x="1032.505" y="252.307" fill="#000" font-size="11" textLength="29.278">Sales</text><text x="1184.235" y="252.307" fill="#000" font-size="11" textLength="46.68">Expense</text><rect x="902.753" y="286.901" width="179" height="47.938" fill="#FEFEFE" style="stroke:#2B2B2B;stroke-width:0.5;" rx="12.5" ry="12.5"/><text x="929.402" y="308.04" fill="#000" font-size="12" textLength="125.701">Receive sales details</text><text x="912.753" y="322.009" fill="#000" font-size="12" textLength="159">or keep handwritten notes</text><rect x="927.45" y="354.839" width="129.605" height="47.938" fill="#FEFEFE" style="stroke:#2B2B2B;stroke-width:0.5;" rx="12.5" ry="12.5"/><text x="937.45" y="375.978" fill="#000" font-size="12" textLength="109.605">Forward sales info</text><text x="948.565" y="389.946" fill="#000" font-size="12" textLength="87.375">to Bookkeeper</text><rect x="1179.576" y="422.776" width="148.379" height="47.938" fill="#FEFEFE" style="stroke:#2B2B2B;stroke-width:0.5;" rx="12.5" ry="12.5"/><text x="1189.576" y="443.915" fill="#000" font-size="12" textLength="128.379">Receive expense info</text><text x="1219.593" y="457.884" fill="#000" font-size="12" textLength="68.344">and receipt</text><polygon points="1218.069,490.714,1289.461,490.714,1301.461,503.519,1289.461,516.323,1218.069,516.323,1206.069,503.519,1218.069,490.714" fill="#FFF" style="stroke:#2B2B2B;stroke-width:0.5;stroke-linejoin:miter;stroke-miterlimit:10;"/><text x="1224.084" y="500.924" fill="#000" font-size="11" textLength="59.361">Forward to</text><text x="1218.069" y="513.729" fill="#000" font-size="11" textLength="71.393">Bookkeeper?</text><text x="1187.061" y="500.924" fill="#000" font-size="11" textLength="19.008">yes</text><text x="1301.461" y="500.924" fill="#000" font-size="11" textLength="13.702">no</text><rect x="1111.753" y="536.323" width="123.436" height="47.938" fill="#FEFEFE" style="stroke:#2B2B2B;stroke-width:0.5;" rx="12.5" ry="12.5"/><text x="1121.753" y="557.462" fill="#000" font-size="12" textLength="103.436">Forward expense</text><text x="1129.783" y="571.431" fill="#000" font-size="12" textLength="87.375">to Bookkeeper</text><path d="M1432.931,540.741 L1432.931,549.308 L1412.931,553.308 L1432.931,557.308 L1432.931,565.874 A0,0 0 0 0 1432.931,565.874 L1725.598,565.874 A0,0 0 0 0 1725.598,565.874 L1725.598,550.741 L1715.598,540.741 L1432.931,540.741 A0,0 0 0 0 1432.931,540.741" style="stroke:#C2C27A;stroke-width:0.5;" fill="#FFFFE0"/><path d="M1715.598,540.741 L1715.598,550.741 L1725.598,550.741 L1715.598,540.741" style="stroke:#C2C27A;stroke-width:0.5;" fill="#FFFFE0"/><text x="1438.931" y="557.808" fill="#000" font-size="13" textLength="271.667">Risk: forgotten expenses\nor lost receipts</text><rect x="1255.188" y="536.323" width="157.742" height="33.969" fill="#FEFEFE" style="stroke:#2B2B2B;stroke-width:0.5;" rx="12.5" ry="12.5"/><text x="1265.188" y="557.462" fill="#000" font-size="12" textLength="137.742">Keep in personal notes</text><polygon points="1253.765,662.198,1265.765,674.198,1253.765,686.198,1241.765,674.198,1253.765,662.198" fill="#FFF" style="stroke:#2B2B2B;stroke-width:0.5;stroke-linejoin:miter;stroke-miterlimit:10;"/><polygon points="1123.009,696.198,1135.009,708.198,1123.009,720.198,1111.009,708.198,1123.009,696.198" fill="#FFF" style="stroke:#2B2B2B;stroke-width:0.5;stroke-linejoin:miter;stroke-miterlimit:10;"/><rect x="1038.372" y="740.198" width="169.273" height="47.938" fill="#FEFEFE" style="stroke:#2B2B2B;stroke-width:0.5;" rx="12.5" ry="12.5"/><text x="1052.518" y="761.337" fill="#000" font-size="12" textLength="140.982">Review manual records</text><text x="1048.372" y="775.306" fill="#000" font-size="12" textLength="149.273">across disparate sources</text><rect x="1036.878" y="933.19" width="172.262" height="47.938" fill="#FEFEFE" style="stroke:#2B2B2B;stroke-width:0.5;" rx="12.5" ry="12.5"/><text x="1046.878" y="954.329" fill="#000" font-size="12" textLength="152.262">Manually calculate salary</text><text x="1057.917" y="968.298" fill="#000" font-size="12" textLength="130.184">(Hours x Hourly Rate)</text><rect x="1023.475" y="1001.128" width="199.068" height="61.906" fill="#FEFEFE" style="stroke:#2B2B2B;stroke-width:0.5;" rx="12.5" ry="12.5"/><text x="1033.475" y="1022.267" fill="#000" font-size="12" textLength="179.068">Financial information remains</text><text x="1055.269" y="1036.235" fill="#000" font-size="12" textLength="135.48">across notes, receipts,</text><text x="1054.284" y="1050.204" fill="#000" font-size="12" textLength="137.449">Messenger, and ledger</text><ellipse cx="1123.009" cy="1094.034" rx="11" ry="11" fill="none" style="stroke:#222;stroke-width:1;"/><ellipse cx="1123.009" cy="1094.034" rx="6" ry="6" fill="#222" style="stroke:#222;stroke-width:1;"/><line x1="896.753" y1="55.042" x2="896.753" y2="1105.034" style="stroke:#000;stroke-width:1.5;"/><rect x="1736.598" y="422.776" width="96.6" height="47.938" fill="#FEFEFE" style="stroke:#2B2B2B;stroke-width:0.5;" rx="12.5" ry="12.5"/><text x="1746.598" y="443.915" fill="#000" font-size="12" textLength="76.6">Record sales</text><text x="1758.387" y="457.884" fill="#000" font-size="12" textLength="53.021">in ledger</text><rect x="1843.197" y="604.261" width="116.75" height="47.938" fill="#FEFEFE" style="stroke:#2B2B2B;stroke-width:0.5;" rx="12.5" ry="12.5"/><text x="1853.197" y="625.399" fill="#000" font-size="12" textLength="96.75">Record expense</text><text x="1875.062" y="639.368" fill="#000" font-size="12" textLength="53.021">in ledger</text><line x1="1730.598" y1="55.042" x2="1730.598" y2="1105.034" style="stroke:#000;stroke-width:1.5;"/><line x1="1963.947" y1="55.042" x2="1963.947" y2="1105.034" style="stroke:#000;stroke-width:1.5;"/><line x1="113.473" y1="334.839" x2="113.473" y2="354.839" style="stroke:#2B2B2B;stroke-width:1;"/><polygon points="109.473,344.839,113.473,354.839,117.473,344.839,113.473,348.839" fill="#2B2B2B" style="stroke:#2B2B2B;stroke-width:1;stroke-linejoin:miter;stroke-miterlimit:10;"/><line x1="592.263" y1="842.104" x2="592.263" y2="865.253" style="stroke:#2B2B2B;stroke-width:1;"/><polygon points="588.263,855.253,592.263,865.253,596.263,855.253,592.263,859.253" fill="#2B2B2B" style="stroke:#2B2B2B;stroke-width:1;stroke-linejoin:miter;stroke-miterlimit:10;"/><line x1="1123.009" y1="100.995" x2="1123.009" y2="120.995" style="stroke:#2B2B2B;stroke-width:1;"/><polygon points="1119.009,110.995,1123.009,120.995,1127.009,110.995,1123.009,114.995" fill="#2B2B2B" style="stroke:#2B2B2B;stroke-width:1;stroke-linejoin:miter;stroke-miterlimit:10;"/><line x1="1123.009" y1="168.933" x2="1123.009" y2="188.933" style="stroke:#2B2B2B;stroke-width:1;"/><polygon points="1119.009,178.933,1123.009,188.933,1127.009,178.933,1123.009,182.933" fill="#2B2B2B" style="stroke:#2B2B2B;stroke-width:1;stroke-linejoin:miter;stroke-miterlimit:10;"/><line x1="992.253" y1="334.839" x2="992.253" y2="354.839" style="stroke:#2B2B2B;stroke-width:1;"/><polygon points="988.253,344.839,992.253,354.839,996.253,344.839,992.253,348.839" fill="#2B2B2B" style="stroke:#2B2B2B;stroke-width:1;stroke-linejoin:miter;stroke-miterlimit:10;"/><line x1="1206.069" y1="503.519" x2="1173.471" y2="503.519" style="stroke:#2B2B2B;stroke-width:1;"/><line x1="1173.471" y1="503.519" x2="1173.471" y2="536.323" style="stroke:#2B2B2B;stroke-width:1;"/><polygon points="1169.471,526.323,1173.471,536.323,1177.471,526.323,1173.471,530.323" fill="#2B2B2B" style="stroke:#2B2B2B;stroke-width:1;stroke-linejoin:miter;stroke-miterlimit:10;"/><line x1="1301.461" y1="503.519" x2="1334.06" y2="503.519" style="stroke:#2B2B2B;stroke-width:1;"/><line x1="1334.06" y1="503.519" x2="1334.06" y2="536.323" style="stroke:#2B2B2B;stroke-width:1;"/><polygon points="1330.06,526.323,1334.06,536.323,1338.06,526.323,1334.06,530.323" fill="#2B2B2B" style="stroke:#2B2B2B;stroke-width:1;stroke-linejoin:miter;stroke-miterlimit:10;"/><line x1="1334.06" y1="570.292" x2="1334.06" y2="674.198" style="stroke:#2B2B2B;stroke-width:1;"/><line x1="1334.06" y1="674.198" x2="1265.765" y2="674.198" style="stroke:#2B2B2B;stroke-width:1;"/><polygon points="1275.765,670.198,1265.765,674.198,1275.765,678.198,1271.765,674.198" fill="#2B2B2B" style="stroke:#2B2B2B;stroke-width:1;stroke-linejoin:miter;stroke-miterlimit:10;"/><line x1="1253.765" y1="470.714" x2="1253.765" y2="490.714" style="stroke:#2B2B2B;stroke-width:1;"/><polygon points="1249.765,480.714,1253.765,490.714,1257.765,480.714,1253.765,484.714" fill="#2B2B2B" style="stroke:#2B2B2B;stroke-width:1;stroke-linejoin:miter;stroke-miterlimit:10;"/><line x1="1061.783" y1="254.901" x2="992.253" y2="254.901" style="stroke:#2B2B2B;stroke-width:1;"/><line x1="992.253" y1="254.901" x2="992.253" y2="286.901" style="stroke:#2B2B2B;stroke-width:1;"/><polygon points="988.253,276.901,992.253,286.901,996.253,276.901,992.253,280.901" fill="#2B2B2B" style="stroke:#2B2B2B;stroke-width:1;stroke-linejoin:miter;stroke-miterlimit:10;"/><line x1="1253.765" y1="686.198" x2="1253.765" y2="708.198" style="stroke:#2B2B2B;stroke-width:1;"/><line x1="1253.765" y1="708.198" x2="1135.009" y2="708.198" style="stroke:#2B2B2B;stroke-width:1;"/><polygon points="1145.009,704.198,1135.009,708.198,1145.009,712.198,1141.009,708.198" fill="#2B2B2B" style="stroke:#2B2B2B;stroke-width:1;stroke-linejoin:miter;stroke-miterlimit:10;"/><line x1="1123.009" y1="222.901" x2="1123.009" y2="242.901" style="stroke:#2B2B2B;stroke-width:1;"/><polygon points="1119.009,232.901,1123.009,242.901,1127.009,232.901,1123.009,236.901" fill="#2B2B2B" style="stroke:#2B2B2B;stroke-width:1;stroke-linejoin:miter;stroke-miterlimit:10;"/><line x1="1123.009" y1="720.198" x2="1123.009" y2="740.198" style="stroke:#2B2B2B;stroke-width:1;"/><polygon points="1119.009,730.198,1123.009,740.198,1127.009,730.198,1123.009,734.198" fill="#2B2B2B" style="stroke:#2B2B2B;stroke-width:1;stroke-linejoin:miter;stroke-miterlimit:10;"/><line x1="1123.009" y1="981.128" x2="1123.009" y2="1001.128" style="stroke:#2B2B2B;stroke-width:1;"/><polygon points="1119.009,991.128,1123.009,1001.128,1127.009,991.128,1123.009,995.128" fill="#2B2B2B" style="stroke:#2B2B2B;stroke-width:1;stroke-linejoin:miter;stroke-miterlimit:10;"/><line x1="1123.009" y1="1063.034" x2="1123.009" y2="1083.034" style="stroke:#2B2B2B;stroke-width:1;"/><polygon points="1119.009,1073.034,1123.009,1083.034,1127.009,1073.034,1123.009,1077.034" fill="#2B2B2B" style="stroke:#2B2B2B;stroke-width:1;stroke-linejoin:miter;stroke-miterlimit:10;"/><line x1="992.253" y1="402.776" x2="992.253" y2="407.776" style="stroke:#2B2B2B;stroke-width:1;"/><line x1="992.253" y1="407.776" x2="1784.897" y2="407.776" style="stroke:#2B2B2B;stroke-width:1;"/><line x1="1784.897" y1="407.776" x2="1784.897" y2="422.776" style="stroke:#2B2B2B;stroke-width:1;"/><polygon points="1780.897,412.776,1784.897,422.776,1788.897,412.776,1784.897,416.776" fill="#2B2B2B" style="stroke:#2B2B2B;stroke-width:1;stroke-linejoin:miter;stroke-miterlimit:10;"/><line x1="113.473" y1="402.776" x2="113.473" y2="407.776" style="stroke:#2B2B2B;stroke-width:1;"/><line x1="113.473" y1="407.776" x2="1253.765" y2="407.776" style="stroke:#2B2B2B;stroke-width:1;"/><line x1="1253.765" y1="407.776" x2="1253.765" y2="422.776" style="stroke:#2B2B2B;stroke-width:1;"/><polygon points="1249.765,412.776,1253.765,422.776,1257.765,412.776,1253.765,416.776" fill="#2B2B2B" style="stroke:#2B2B2B;stroke-width:1;stroke-linejoin:miter;stroke-miterlimit:10;"/><line x1="1173.471" y1="584.261" x2="1173.471" y2="589.261" style="stroke:#2B2B2B;stroke-width:1;"/><line x1="1173.471" y1="589.261" x2="1901.572" y2="589.261" style="stroke:#2B2B2B;stroke-width:1;"/><line x1="1901.572" y1="589.261" x2="1901.572" y2="604.261" style="stroke:#2B2B2B;stroke-width:1;"/><polygon points="1897.572,594.261,1901.572,604.261,1905.572,594.261,1901.572,598.261" fill="#2B2B2B" style="stroke:#2B2B2B;stroke-width:1;stroke-linejoin:miter;stroke-miterlimit:10;"/><line x1="1901.572" y1="652.198" x2="1901.572" y2="656.198" style="stroke:#2B2B2B;stroke-width:1;"/><line x1="1901.572" y1="656.198" x2="1223.765" y2="656.198" style="stroke:#2B2B2B;stroke-width:1;"/><line x1="1223.765" y1="656.198" x2="1223.765" y2="674.198" style="stroke:#2B2B2B;stroke-width:1;"/><line x1="1223.765" y1="674.198" x2="1241.765" y2="674.198" style="stroke:#2B2B2B;stroke-width:1;"/><polygon points="1231.765,670.198,1241.765,674.198,1231.765,678.198,1235.765,674.198" fill="#2B2B2B" style="stroke:#2B2B2B;stroke-width:1;stroke-linejoin:miter;stroke-miterlimit:10;"/><line x1="1184.235" y1="254.901" x2="1196.235" y2="254.901" style="stroke:#2B2B2B;stroke-width:1;"/><line x1="1196.235" y1="254.901" x2="1196.235" y2="272.901" style="stroke:#2B2B2B;stroke-width:1;"/><line x1="1196.235" y1="272.901" x2="113.473" y2="272.901" style="stroke:#2B2B2B;stroke-width:1;"/><line x1="113.473" y1="272.901" x2="113.473" y2="286.901" style="stroke:#2B2B2B;stroke-width:1;"/><polygon points="109.473,276.901,113.473,286.901,117.473,276.901,113.473,280.901" fill="#2B2B2B" style="stroke:#2B2B2B;stroke-width:1;stroke-linejoin:miter;stroke-miterlimit:10;"/><line x1="1784.897" y1="470.714" x2="1784.897" y2="690.198" style="stroke:#2B2B2B;stroke-width:1;"/><line x1="1784.897" y1="690.198" x2="1093.009" y2="690.198" style="stroke:#2B2B2B;stroke-width:1;"/><line x1="1093.009" y1="690.198" x2="1093.009" y2="708.198" style="stroke:#2B2B2B;stroke-width:1;"/><line x1="1093.009" y1="708.198" x2="1111.009" y2="708.198" style="stroke:#2B2B2B;stroke-width:1;"/><polygon points="1101.009,704.198,1111.009,708.198,1101.009,712.198,1105.009,708.198" fill="#2B2B2B" style="stroke:#2B2B2B;stroke-width:1;stroke-linejoin:miter;stroke-miterlimit:10;"/><line x1="1123.009" y1="788.136" x2="1123.009" y2="793.136" style="stroke:#2B2B2B;stroke-width:1;"/><line x1="1123.009" y1="793.136" x2="592.263" y2="793.136" style="stroke:#2B2B2B;stroke-width:1;"/><line x1="592.263" y1="793.136" x2="592.263" y2="808.136" style="stroke:#2B2B2B;stroke-width:1;"/><polygon points="588.263,798.136,592.263,808.136,596.263,798.136,592.263,802.136" fill="#2B2B2B" style="stroke:#2B2B2B;stroke-width:1;stroke-linejoin:miter;stroke-miterlimit:10;"/><line x1="592.263" y1="913.19" x2="592.263" y2="918.19" style="stroke:#2B2B2B;stroke-width:1;"/><line x1="592.263" y1="918.19" x2="1123.009" y2="918.19" style="stroke:#2B2B2B;stroke-width:1;"/><line x1="1123.009" y1="918.19" x2="1123.009" y2="933.19" style="stroke:#2B2B2B;stroke-width:1;"/><polygon points="1119.009,923.19,1123.009,933.19,1127.009,923.19,1123.009,927.19" fill="#2B2B2B" style="stroke:#2B2B2B;stroke-width:1;stroke-linejoin:miter;stroke-miterlimit:10;"/><text x="141.047" y="71.75" fill="#000" font-size="18" textLength="215.508">Employees / Event Staff</text><text x="621.163" y="71.75" fill="#000" font-size="18" textLength="132.029">Manager/Head</text><text x="1241.741" y="71.75" fill="#000" font-size="18" textLength="143.868">Business Owner</text><text x="1793.637" y="71.75" fill="#000" font-size="18" textLength="107.271">Bookkeeper</text><?plantuml-src XLR1RkCs4BthAmPOe6i3pcOJR550EHI9OsEBrcqGfGKA-49B8vamHGeSoeeMEVGZzWltIpgKP4cndLq9i2tEyCtmlKVAx-7-tmYMKWiTIw5W9RJ8C4Vj8Ah9OGwJ9c4LJOFtC1U44BaogU7T9_ZstrUuZPtSIrV3lHIP5Na8yz9QF_sk9AcH21wiYVttv9OkVYCFymzQaaR3rTM7ZmrA97Mc49mfBfovs1ZdJ0wfCjKCOeL2GuusGve1RON514o1LZY6u8wrSSYOVnhNZ8Jmz-eFkFxmVD8QLD9j8QfahWGt5WIqaxeGFX9jHM8gRW9IeGX7aNjCHQdS4pwxMoKptJ0JymVQKTQXr9s8TvarfKxcHXaBxvOBVv_BD3P1ssLTt_dxJ1PtdXkTdC8srtScV1VzGLWdFLS_nXrInuW_DzUulBMcUgiSAuDdAoq-7cUDYyolvzU_t8uodgHJk3JQHV8BmjMdio5NiuysHYL1uFnWO-_5tgisihRtt0zz6hmiyaAP6f7WiiE8d4ZJb-2bnRANdr4a_DXZ_5Lfj7x0cDqEiV0Ffs5oJ6iGziFE2aqYzZo3YUFIqbgBs1eERGuvXB4pzYRmTWShiwqB0A9caC9XbRn7xdxYfnb7bqhiEGgRsiTd46bH-CGLviPAtW6eatRx1E4zigDpBlMg6LSNU1C4CeN9qz7mhrEGp5Ka5D8Kt1OrLmmVCKQvHo0_30aw8HKlXlNqRC1MwAIoqZdKJM6wyPEMnbR29jqagLEprix0mA7FUaLfMyaSvgorrA0moGwfHtmZxscOB9uBr8HJd_6ciepyKDfuwmywAej2CK_0NQ-rRGjYYt9Ocw_tIXA01xIfiJaVKqnyN-XoLAP9Oqx6BeAAAGH1n8SC9fpHYyCjHVxXg7BV5Sh2mLuArfK8zLiaZDGv8BLKCmvqC7wY5_kWYEFmm7idUJqIVAHU1tf6kXFn1ldwIQy4FDjzAw8sqnRWT-yddiMGrBy7g9rz90Z0ewHT2AnAPXhlTMLRPof3xa00DHD6rFDFcGRjPy1TxoLMa0jTSiNM4SDUJIJvuuXhas4F-MwEJuemAhdXlUIbOEyCR9n1tXad-xi3j4Y5qIGtKl4fpn4cmlcrNuoswtJOq8TEq_x5Rh4mrd6p_Yqe1wTr1mimJERt-WdpuQfPhQeX5YekLRC-eOIjrthocHTAy0p-cpCUEJYz2SBX_uItcCsRDpEta0kf1xuQnMOzzRErxXqyy-xk7K7yn-1_?></g></svg>